<svg contentScriptType="application/ecmascript" contentStyleType="text/css" height="2177" preserveAspectRatio="none" viewBox="0 0 1668 2177" width="1668" xmlns="http://www.w3.org/2000/svg" xmlns:xlink="http://www.w3.org/1999/xlink" zoomAndPan="magnify"><filter id="a" height="300%" width="300%" x="-1" y="-1"><feGaussianBlur result="blurOut" stdDeviation="2"/><feColorMatrix in="blurOut" result="blurOut2" type="matrix" values="0 0 0 0 0 0 0 0 0 0 0 0 0 0 0 0 0 0 .4 0"/><feOffset dx="4" dy="4" in="blurOut2" result="blurOut3"/><feBlend in="SourceGraphic" in2="blurOut3" mode="normal"/></filter><path d="m599 15h360v26.4883h-360z" fill="none"/><text font-family="sans-serif" font-size="14" font-weight="bold" lengthAdjust="spacingAndGlyphs" textLength="350" x="604" y="33.5352">新一代高效视频编码H.265--HEVC：原理、标准与实现</text><rect fill="#fff" filter="url(#a)" height="36.4883" rx="5" stroke="#000" stroke-width="1.5" width="405" x="697" y="1088.3994"/><text fill="#555" font-family="sans-serif" font-size="14" lengthAdjust="spacingAndGlyphs" textLength="385" x="707" y="1111.9346">新一代高效视频编码H.265--HEVC：原理、标准与实现.puml</text><rect fill="#fff" filter="url(#a)" height="36.4883" rx="5" stroke="#000" stroke-width="1.5" width="48" x="1152" y="226.9531"/><text fill="#555" font-family="sans-serif" font-size="14" lengthAdjust="spacingAndGlyphs" textLength="28" x="1162" y="250.4883">绪论</text><rect fill="#fff" filter="url(#a)" height="36.4883" rx="5" stroke="#000" stroke-width="1.5" width="146" x="1250" y="85.7324"/><text fill="#555" font-family="sans-serif" font-size="14" lengthAdjust="spacingAndGlyphs" textLength="126" x="1260" y="109.2676">视频压缩与编码概述</text><rect fill="#fff" filter="url(#a)" height="36.4883" rx="5" stroke="#000" stroke-width="1.5" width="48" x="1446" y="57.4883"/><text fill="#555" font-family="sans-serif" font-size="14" lengthAdjust="spacingAndGlyphs" textLength="28" x="1456" y="81.0234">视频</text><path d="m1396 103.9766h10c15 0 15-28.2442 30-28.2442h10" fill="none" stroke="#000"/><rect fill="#fff" filter="url(#a)" height="36.4883" rx="5" stroke="#000" stroke-width="1.5" width="118" x="1446" y="113.9766"/><text fill="#555" font-family="sans-serif" font-size="14" lengthAdjust="spacingAndGlyphs" textLength="98" x="1456" y="137.5117">视频压缩与编码</text><path d="m1396 103.9766h10c15 0 15 28.2441 30 28.2441h10" fill="none" stroke="#000"/><path d="m1200 245.1973h10c15 0 15-141.2207 30-141.2207h10" fill="none" stroke="#000"/><rect fill="#fff" filter="url(#a)" height="36.4883" rx="5" stroke="#000" stroke-width="1.5" width="104" x="1250" y="198.709"/><text fill="#555" font-family="sans-serif" font-size="14" lengthAdjust="spacingAndGlyphs" textLength="84" x="1260" y="222.2441">视频编码标准</text><rect fill="#fff" filter="url(#a)" height="36.4883" rx="5" stroke="#000" stroke-width="1.5" width="146" x="1404" y="170.4648"/><text fill="#555" font-family="sans-serif" font-size="14" lengthAdjust="spacingAndGlyphs" textLength="126" x="1414" y="194">什么是视频编码标准</text><path d="m1354 216.9531h10c15 0 15-28.2441 30-28.2441h10" fill="none" stroke="#000"/><rect fill="#fff" filter="url(#a)" height="36.4883" rx="5" stroke="#000" stroke-width="1.5" width="174" x="1404" y="226.9531"/><text fill="#555" font-family="sans-serif" font-size="14" lengthAdjust="spacingAndGlyphs" textLength="154" x="1414" y="250.4883">视频编码国际标准的发展</text><path d="m1354 216.9531h10c15 0 15 28.2442 30 28.2442h10" fill="none" stroke="#000"/><path d="m1200 245.1973h10c15 0 15-28.2442 30-28.2442h10" fill="none" stroke="#000"/><rect fill="#fff" filter="url(#a)" height="36.4883" rx="5" stroke="#000" stroke-width="1.5" width="133" x="1250" y="339.9297"/><text fill="#555" font-family="sans-serif" font-size="14" lengthAdjust="spacingAndGlyphs" textLength="113" x="1260" y="363.4648">H.265/HEVC简介</text><rect fill="#fff" filter="url(#a)" height="36.4883" rx="5" stroke="#000" stroke-width="1.5" width="90" x="1433" y="283.4414"/><text fill="#555" font-family="sans-serif" font-size="14" lengthAdjust="spacingAndGlyphs" textLength="70" x="1443" y="306.9766">标准化历程</text><path d="m1383 358.1738h10c15 0 15-56.4883 30-56.4883h10" fill="none" stroke="#000"/><rect fill="#fff" filter="url(#a)" height="36.4883" rx="5" stroke="#000" stroke-width="1.5" width="76" x="1433" y="339.9297"/><text fill="#555" font-family="sans-serif" font-size="14" lengthAdjust="spacingAndGlyphs" textLength="56" x="1443" y="363.4648">编码框架</text><path d="m1383 358.1738h10 30 10" fill="none" stroke="#000"/><rect fill="#fff" filter="url(#a)" height="36.4883" rx="5" stroke="#000" stroke-width="1.5" width="104" x="1433" y="396.418"/><text fill="#555" font-family="sans-serif" font-size="14" lengthAdjust="spacingAndGlyphs" textLength="84" x="1443" y="419.9531">特色编码技术</text><g stroke="#000"><path d="m1383 358.1738h10c15 0 15 56.4883 30 56.4883h10" fill="none"/><path d="m1200 245.1973h10c15 0 15 112.9765 30 112.9765h10" fill="none"/><path d="m1102 1106.6436h10c15 0 15-861.4463 30-861.4463h10" fill="none"/><rect fill="#fff" filter="url(#a)" height="36.4883" rx="5" stroke-width="1.5" width="104" x="1152" y="650.6152"/></g><text fill="#555" font-family="sans-serif" font-size="14" lengthAdjust="spacingAndGlyphs" textLength="84" x="1162" y="674.1504">数字视频格式</text><rect fill="#fff" filter="url(#a)" height="36.4883" rx="5" stroke="#000" stroke-width="1.5" width="76" x="1306" y="537.6387"/><text fill="#555" font-family="sans-serif" font-size="14" lengthAdjust="spacingAndGlyphs" textLength="56" x="1316" y="561.1738">数字视频</text><rect fill="#fff" filter="url(#a)" height="36.4883" rx="5" stroke="#000" stroke-width="1.5" width="76" x="1432" y="452.9063"/><text fill="#555" font-family="sans-serif" font-size="14" lengthAdjust="spacingAndGlyphs" textLength="56" x="1442" y="476.4414">颜色空间</text><path d="m1382 555.8828h10c15 0 15-84.7324 30-84.7324h10" fill="none" stroke="#000"/><rect fill="#fff" filter="url(#a)" height="36.4883" rx="5" stroke="#000" stroke-width="1.5" width="76" x="1432" y="509.3945"/><text fill="#555" font-family="sans-serif" font-size="14" lengthAdjust="spacingAndGlyphs" textLength="56" x="1442" y="532.9297">量化深度</text><path d="m1382 555.8828h10c15 0 15-28.2441 30-28.2441h10" fill="none" stroke="#000"/><rect fill="#fff" filter="url(#a)" height="36.4883" rx="5" stroke="#000" stroke-width="1.5" width="90" x="1432" y="565.8828"/><text fill="#555" font-family="sans-serif" font-size="14" lengthAdjust="spacingAndGlyphs" textLength="70" x="1442" y="589.418">空间分辨率</text><path d="m1382 555.8828h10c15 0 15 28.2442 30 28.2442h10" fill="none" stroke="#000"/><rect fill="#fff" filter="url(#a)" height="36.4883" rx="5" stroke="#000" stroke-width="1.5" width="90" x="1432" y="622.3711"/><text fill="#555" font-family="sans-serif" font-size="14" lengthAdjust="spacingAndGlyphs" textLength="70" x="1442" y="645.9063">时间分辨率</text><path d="m1382 555.8828h10c15 0 15 84.7324 30 84.7324h10" fill="none" stroke="#000"/><path d="m1256 668.8594h10c15 0 15-112.9766 30-112.9766h10" fill="none" stroke="#000"/><rect fill="#fff" filter="url(#a)" height="36.4883" rx="5" stroke="#000" stroke-width="1.5" width="104" x="1306" y="707.1035"/><text fill="#555" font-family="sans-serif" font-size="14" lengthAdjust="spacingAndGlyphs" textLength="84" x="1316" y="730.6387">数字视频格式</text><rect fill="#fff" filter="url(#a)" height="36.4883" rx="5" stroke="#000" stroke-width="1.5" width="90" x="1460" y="678.8594"/><text fill="#555" font-family="sans-serif" font-size="14" lengthAdjust="spacingAndGlyphs" textLength="70" x="1470" y="702.3945">色度亚采样</text><path d="m1410 725.3477h10c15 0 15-28.2442 30-28.2442h10" fill="none" stroke="#000"/><rect fill="#fff" filter="url(#a)" height="36.4883" rx="5" stroke="#000" stroke-width="1.5" width="174" x="1460" y="735.3477"/><text fill="#555" font-family="sans-serif" font-size="14" lengthAdjust="spacingAndGlyphs" textLength="154" x="1470" y="758.8828">数字视频格式的规范标准</text><path d="m1410 725.3477h10c15 0 15 28.2441 30 28.2441h10" fill="none" stroke="#000"/><path d="m1256 668.8594h10c15 0 15 56.4883 30 56.4883h10" fill="none" stroke="#000"/><rect fill="#fff" filter="url(#a)" height="36.4883" rx="5" stroke="#000" stroke-width="1.5" width="189" x="1306" y="820.0801"/><text fill="#555" font-family="sans-serif" font-size="14" lengthAdjust="spacingAndGlyphs" textLength="169" x="1316" y="843.6152">H.265/HEVC编码视频格式</text><rect fill="#fff" filter="url(#a)" height="36.4883" rx="5" stroke="#000" stroke-width="1.5" width="104" x="1545" y="791.8359"/><text fill="#555" font-family="sans-serif" font-size="14" lengthAdjust="spacingAndGlyphs" textLength="84" x="1555" y="815.3711">编码图像格式</text><path d="m1495 838.3242h10c15 0 15-28.2441 30-28.2441h10" fill="none" stroke="#000"/><rect fill="#fff" filter="url(#a)" height="36.4883" rx="5" stroke="#000" stroke-width="1.5" width="104" x="1545" y="848.3242"/><text fill="#555" font-family="sans-serif" font-size="14" lengthAdjust="spacingAndGlyphs" textLength="84" x="1555" y="871.8594">解码图像格式</text><path d="m1495 838.3242h10c15 0 15 28.2442 30 28.2442h10" fill="none" stroke="#000"/><path d="m1256 668.8594h10c15 0 15 169.4648 30 169.4648h10" fill="none" stroke="#000"/><path d="m1102 1106.6436h10c15 0 15-437.7842 30-437.7842h10" fill="none" stroke="#000"/><rect fill="#fff" filter="url(#a)" height="36.4883" rx="5" stroke="#000" stroke-width="1.5" width="76" x="1152" y="1173.1318"/><text fill="#555" font-family="sans-serif" font-size="14" lengthAdjust="spacingAndGlyphs" textLength="56" x="1162" y="1196.667">编码结构</text><rect fill="#fff" filter="url(#a)" height="36.4883" rx="5" stroke="#000" stroke-width="1.5" width="104" x="1278" y="904.8125"/><text fill="#555" font-family="sans-serif" font-size="14" lengthAdjust="spacingAndGlyphs" textLength="84" x="1288" y="928.3477">编码结构概述</text><path d="m1228 1191.376h10c15 0 15-268.3194 30-268.3194h10" fill="none" stroke="#000"/><rect fill="#fff" filter="url(#a)" height="36.4883" rx="5" stroke="#000" stroke-width="1.5" width="90" x="1278" y="989.5449"/><text fill="#555" font-family="sans-serif" font-size="14" lengthAdjust="spacingAndGlyphs" textLength="70" x="1288" y="1013.0801">视频参数集</text><rect fill="#fff" filter="url(#a)" height="36.4883" rx="5" stroke="#000" stroke-width="1.5" width="90" x="1418" y="961.3008"/><text fill="#555" font-family="sans-serif" font-size="14" lengthAdjust="spacingAndGlyphs" textLength="70" x="1428" y="984.8359">视频层描述</text><path d="m1368 1007.7891h10c15 0 15-28.2442 30-28.2442h10" fill="none" stroke="#000"/><rect fill="#fff" filter="url(#a)" height="36.4883" rx="5" stroke="#000" stroke-width="1.5" width="104" x="1418" y="1017.7891"/><text fill="#555" font-family="sans-serif" font-size="14" lengthAdjust="spacingAndGlyphs" textLength="84" x="1428" y="1041.3242">视频层参数集</text><path d="m1368 1007.7891h10c15 0 15 28.2441 30 28.2441h10" fill="none" stroke="#000"/><path d="m1228 1191.376h10c15 0 15-183.5869 30-183.5869h10" fill="none" stroke="#000"/><rect fill="#fff" filter="url(#a)" height="36.4883" rx="5" stroke="#000" stroke-width="1.5" width="90" x="1278" y="1046.0332"/><text fill="#555" font-family="sans-serif" font-size="14" lengthAdjust="spacingAndGlyphs" textLength="70" x="1288" y="1069.5684">序列参数集</text><path d="m1228 1191.376h10c15 0 15-127.0987 30-127.0987h10" fill="none" stroke="#000"/><rect fill="#fff" filter="url(#a)" height="36.4883" rx="5" stroke="#000" stroke-width="1.5" width="90" x="1278" y="1102.5215"/><text fill="#555" font-family="sans-serif" font-size="14" lengthAdjust="spacingAndGlyphs" textLength="70" x="1288" y="1126.0566">图像参数集</text><path d="m1228 1191.376h10c15 0 15-70.6104 30-70.6104h10" fill="none" stroke="#000"/><rect fill="#fff" filter="url(#a)" height="36.4883" rx="5" stroke="#000" stroke-width="1.5" width="62" x="1278" y="1187.2539"/><text fill="#555" font-family="sans-serif" font-size="14" lengthAdjust="spacingAndGlyphs" textLength="42" x="1288" y="1210.7891">片段层</text><rect fill="#fff" filter="url(#a)" height="36.4883" rx="5" stroke="#000" stroke-width="1.5" width="76" x="1390" y="1159.0098"/><text fill="#555" font-family="sans-serif" font-size="14" lengthAdjust="spacingAndGlyphs" textLength="56" x="1400" y="1182.5449">片与片段</text><path d="m1340 1205.498h10c15 0 15-28.2441 30-28.2441h10" fill="none" stroke="#000"/><rect fill="#fff" filter="url(#a)" height="36.4883" rx="5" stroke="#000" stroke-width="1.5" width="104" x="1390" y="1215.498"/><text fill="#555" font-family="sans-serif" font-size="14" lengthAdjust="spacingAndGlyphs" textLength="84" x="1400" y="1239.0332">片头语法语义</text><path d="m1340 1205.498h10c15 0 15 28.2442 30 28.2442h10" fill="none" stroke="#000"/><path d="m1228 1191.376h10c15 0 15 14.122 30 14.122h10" fill="none" stroke="#000"/><rect fill="#fff" filter="url(#a)" height="36.4883" rx="5" stroke="#000" stroke-width="1.5" width="73" x="1278" y="1300.2305"/><text fill="#555" font-family="sans-serif" font-size="14" lengthAdjust="spacingAndGlyphs" textLength="53" x="1288" y="1323.7656">Tile单元</text><rect fill="#fff" filter="url(#a)" height="36.4883" rx="5" stroke="#000" stroke-width="1.5" width="101" x="1401" y="1271.9863"/><text fill="#555" font-family="sans-serif" font-size="14" lengthAdjust="spacingAndGlyphs" textLength="81" x="1411" y="1295.5215">Tile单元描述</text><path d="m1351 1318.4746h10c15 0 15-28.2441 30-28.2441h10" fill="none" stroke="#000"/><rect fill="#fff" filter="url(#a)" height="36.4883" rx="5" stroke="#000" stroke-width="1.5" width="90" x="1401" y="1328.4746"/><text fill="#555" font-family="sans-serif" font-size="14" lengthAdjust="spacingAndGlyphs" textLength="70" x="1411" y="1352.0098">Slice与Tile</text><path d="m1351 1318.4746h10c15 0 15 28.2442 30 28.2442h10" fill="none" stroke="#000"/><path d="m1228 1191.376h10c15 0 15 127.0986 30 127.0986h10" fill="none" stroke="#000"/><rect fill="#fff" filter="url(#a)" height="36.4883" rx="5" stroke="#000" stroke-width="1.5" width="90" x="1278" y="1384.9629"/><text fill="#555" font-family="sans-serif" font-size="14" lengthAdjust="spacingAndGlyphs" textLength="70" x="1288" y="1408.498">树形编码块</text><rect fill="#fff" filter="url(#a)" height="36.4883" rx="5" stroke="#000" stroke-width="1.5" width="76" x="1418" y="1384.9629"/><text fill="#555" font-family="sans-serif" font-size="14" lengthAdjust="spacingAndGlyphs" textLength="56" x="1428" y="1408.498">编码单元</text><path d="m1368 1403.207h10 30 10" fill="none" stroke="#000"/><path d="m1228 1191.376h10c15 0 15 211.831 30 211.831h10" fill="none" stroke="#000"/><rect fill="#fff" filter="url(#a)" height="36.4883" rx="5" stroke="#000" stroke-width="1.5" width="118" x="1278" y="1441.4512"/><text fill="#555" font-family="sans-serif" font-size="14" lengthAdjust="spacingAndGlyphs" textLength="98" x="1288" y="1464.9863">档次、层和级别</text><rect fill="#fff" filter="url(#a)" height="36.4883" rx="5" stroke="#000" stroke-width="1.5" width="48" x="1446" y="1441.4512"/><text fill="#555" font-family="sans-serif" font-size="14" lengthAdjust="spacingAndGlyphs" textLength="28" x="1456" y="1464.9863">档次</text><path d="m1396 1459.6953h10 30 10" fill="none" stroke="#000"/><path d="m1228 1191.376h10c15 0 15 268.3193 30 268.3193h10" fill="none" stroke="#000"/><path d="m1102 1106.6436h10c15 0 15 84.7324 30 84.7324h10" fill="none" stroke="#000"/><rect fill="#fff" filter="url(#a)" height="36.4883" rx="5" stroke="#000" stroke-width="1.5" width="76" x="1152" y="1667.4043"/><text fill="#555" font-family="sans-serif" font-size="14" lengthAdjust="spacingAndGlyphs" textLength="56" x="1162" y="1690.9395">预测编码</text><rect fill="#fff" filter="url(#a)" height="36.4883" rx="5" stroke="#000" stroke-width="1.5" width="132" x="1278" y="1526.1836"/><text fill="#555" font-family="sans-serif" font-size="14" lengthAdjust="spacingAndGlyphs" textLength="112" x="1288" y="1549.7188">视频预测编码技术</text><rect fill="#fff" filter="url(#a)" height="36.4883" rx="5" stroke="#000" stroke-width="1.5" width="118" x="1460" y="1497.9395"/><text fill="#555" font-family="sans-serif" font-size="14" lengthAdjust="spacingAndGlyphs" textLength="98" x="1470" y="1521.4746">预测编码的原理</text><path d="m1410 1544.4277h10c15 0 15-28.2441 30-28.2441h10" fill="none" stroke="#000"/><rect fill="#fff" filter="url(#a)" height="36.4883" rx="5" stroke="#000" stroke-width="1.5" width="104" x="1460" y="1554.4277"/><text fill="#555" font-family="sans-serif" font-size="14" lengthAdjust="spacingAndGlyphs" textLength="84" x="1470" y="1577.9629">帧内预测编码</text><path d="m1410 1544.4277h10c15 0 15 28.2442 30 28.2442h10" fill="none" stroke="#000"/><path d="m1228 1685.6484h10c15 0 15-141.2207 30-141.2207h10" fill="none" stroke="#000"/><rect fill="#fff" filter="url(#a)" height="36.4883" rx="5" stroke="#000" stroke-width="1.5" width="76" x="1278" y="1639.1602"/><text fill="#555" font-family="sans-serif" font-size="14" lengthAdjust="spacingAndGlyphs" textLength="56" x="1288" y="1662.6953">帧内预测</text><rect fill="#fff" filter="url(#a)" height="36.4883" rx="5" stroke="#000" stroke-width="1.5" width="104" x="1404" y="1610.916"/><text fill="#555" font-family="sans-serif" font-size="14" lengthAdjust="spacingAndGlyphs" textLength="84" x="1414" y="1634.4512">帧内预测模式</text><path d="m1354 1657.4043h10c15 0 15-28.2441 30-28.2441h10" fill="none" stroke="#000"/><rect fill="#fff" filter="url(#a)" height="36.4883" rx="5" stroke="#000" stroke-width="1.5" width="104" x="1404" y="1667.4043"/><text fill="#555" font-family="sans-serif" font-size="14" lengthAdjust="spacingAndGlyphs" textLength="84" x="1414" y="1690.9395">帧内预测过程</text><path d="m1354 1657.4043h10c15 0 15 28.2441 30 28.2441h10" fill="none" stroke="#000"/><path d="m1228 1685.6484h10c15 0 15-28.2441 30-28.2441h10" fill="none" stroke="#000"/><rect fill="#fff" filter="url(#a)" height="36.4883" rx="5" stroke="#000" stroke-width="1.5" width="76" x="1278" y="1723.8926"/><text fill="#555" font-family="sans-serif" font-size="14" lengthAdjust="spacingAndGlyphs" textLength="56" x="1288" y="1747.4277">帧间预测</text><rect fill="#fff" filter="url(#a)" height="36.4883" rx="5" stroke="#000" stroke-width="1.5" width="76" x="1404" y="1723.8926"/><text fill="#555" font-family="sans-serif" font-size="14" lengthAdjust="spacingAndGlyphs" textLength="56" x="1414" y="1747.4277">运动估计</text><path d="m1354 1742.1367h10 30 10" fill="none" stroke="#000"/><path d="m1228 1685.6484h10c15 0 15 56.4883 30 56.4883h10" fill="none" stroke="#000"/><rect fill="#fff" filter="url(#a)" height="36.4883" rx="5" stroke="#000" stroke-width="1.5" width="176" x="1278" y="1808.625"/><text fill="#555" font-family="sans-serif" font-size="14" lengthAdjust="spacingAndGlyphs" textLength="156" x="1288" y="1832.1602">PCM模式及相关语法语义</text><rect fill="#fff" filter="url(#a)" height="36.4883" rx="5" stroke="#000" stroke-width="1.5" width="78" x="1504" y="1780.3809"/><text fill="#555" font-family="sans-serif" font-size="14" lengthAdjust="spacingAndGlyphs" textLength="58" x="1514" y="1803.916">PCM模式</text><path d="m1454 1826.8691h10c15 0 15-28.2441 30-28.2441h10" fill="none" stroke="#000"/><rect fill="#fff" filter="url(#a)" height="36.4883" rx="5" stroke="#000" stroke-width="1.5" width="104" x="1504" y="1836.8691"/><text fill="#555" font-family="sans-serif" font-size="14" lengthAdjust="spacingAndGlyphs" textLength="84" x="1514" y="1860.4043">相关语法语义</text><path d="m1454 1826.8691h10c15 0 15 28.2442 30 28.2442h10" fill="none" stroke="#000"/><path d="m1228 1685.6484h10c15 0 15 141.2207 30 141.2207h10" fill="none" stroke="#000"/><path d="m1102 1106.6436h10c15 0 15 579.0048 30 579.0048h10" fill="none" stroke="#000"/><rect fill="#fff" filter="url(#a)" height="36.4883" rx="5" stroke="#000" stroke-width="1.5" width="76" x="1152" y="2006.334"/><text fill="#555" font-family="sans-serif" font-size="14" lengthAdjust="spacingAndGlyphs" textLength="56" x="1162" y="2029.8691">变换编码</text><rect fill="#fff" filter="url(#a)" height="36.4883" rx="5" stroke="#000" stroke-width="1.5" width="104" x="1278" y="1893.3574"/><text fill="#555" font-family="sans-serif" font-size="14" lengthAdjust="spacingAndGlyphs" textLength="84" x="1288" y="1916.8926">离散余弦变换</text><rect fill="#fff" filter="url(#a)" height="36.4883" rx="5" stroke="#000" stroke-width="1.5" width="119" x="1432" y="1893.3574"/><text fill="#555" font-family="sans-serif" font-size="14" lengthAdjust="spacingAndGlyphs" textLength="99" x="1442" y="1916.8926">DCT原理及特点</text><path d="m1382 1911.6016h10 30 10" fill="none" stroke="#000"/><path d="m1228 2024.5781h10c15 0 15-112.9765 30-112.9765h10" fill="none" stroke="#000"/><rect fill="#fff" filter="url(#a)" height="36.4883" rx="5" stroke="#000" stroke-width="1.5" width="104" x="1278" y="1949.8457"/><text fill="#555" font-family="sans-serif" font-size="14" lengthAdjust="spacingAndGlyphs" textLength="84" x="1288" y="1973.3809">离散正弦变换</text><rect fill="#fff" filter="url(#a)" height="36.4883" rx="5" stroke="#000" stroke-width="1.5" width="75" x="1432" y="1949.8457"/><text fill="#555" font-family="sans-serif" font-size="14" lengthAdjust="spacingAndGlyphs" textLength="55" x="1442" y="1973.3809">DST原理</text><path d="m1382 1968.0898h10 30 10" fill="none" stroke="#000"/><path d="m1228 2024.5781h10c15 0 15-56.4883 30-56.4883h10" fill="none" stroke="#000"/><rect fill="#fff" filter="url(#a)" height="36.4883" rx="5" stroke="#000" stroke-width="1.5" width="76" x="1278" y="2034.5781"/><text fill="#555" font-family="sans-serif" font-size="14" lengthAdjust="spacingAndGlyphs" textLength="56" x="1288" y="2058.1133">变换结构</text><rect fill="#fff" filter="url(#a)" height="36.4883" rx="5" stroke="#000" stroke-width="1.5" width="76" x="1404" y="2006.334"/><text fill="#555" font-family="sans-serif" font-size="14" lengthAdjust="spacingAndGlyphs" textLength="56" x="1414" y="2029.8691">变换单元</text><path d="m1354 2052.8223h10c15 0 15-28.2442 30-28.2442h10" fill="none" stroke="#000"/><rect fill="#fff" filter="url(#a)" height="36.4883" rx="5" stroke="#000" stroke-width="1.5" width="104" x="1404" y="2062.8223"/><text fill="#555" font-family="sans-serif" font-size="14" lengthAdjust="spacingAndGlyphs" textLength="84" x="1414" y="2086.3574">相关语法语义</text><path d="m1354 2052.8223h10c15 0 15 28.2441 30 28.2441h10" fill="none" stroke="#000"/><path d="m1228 2024.5781h10c15 0 15 28.2442 30 28.2442h10" fill="none" stroke="#000"/><rect fill="#fff" filter="url(#a)" height="36.4883" rx="5" stroke="#000" stroke-width="1.5" width="90" x="1278" y="2119.3105"/><text fill="#555" font-family="sans-serif" font-size="14" lengthAdjust="spacingAndGlyphs" textLength="70" x="1288" y="2142.8457">哈达玛变换</text><rect fill="#fff" filter="url(#a)" height="36.4883" rx="5" stroke="#000" stroke-width="1.5" width="90" x="1418" y="2119.3105"/><text fill="#555" font-family="sans-serif" font-size="14" lengthAdjust="spacingAndGlyphs" textLength="70" x="1428" y="2142.8457">原理及特点</text><path d="m1368 2137.5547h10 30 10" fill="none" stroke="#000"/><path d="m1228 2024.5781h10c15 0 15 112.9766 30 112.9766h10" fill="none" stroke="#000"/><path d="m1102 1106.6436h10c15 0 15 917.9345 30 917.9345h10" fill="none" stroke="#000"/><rect fill="#fff" filter="url(#a)" height="36.4883" rx="5" stroke="#000" stroke-width="1.5" width="48" x="599" y="184.5869"/><text fill="#555" font-family="sans-serif" font-size="14" lengthAdjust="spacingAndGlyphs" textLength="28" x="609" y="208.1221">量化</text><rect fill="#fff" filter="url(#a)" height="36.4883" rx="5" stroke="#000" stroke-width="1.5" width="76" x="473" y="156.3428"/><text fill="#555" font-family="sans-serif" font-size="14" lengthAdjust="spacingAndGlyphs" textLength="56" x="483" y="179.8779">标量量化</text><rect fill="#fff" filter="url(#a)" height="36.4883" rx="5" stroke="#000" stroke-width="1.5" width="76" x="347" y="128.0986"/><text fill="#555" font-family="sans-serif" font-size="14" lengthAdjust="spacingAndGlyphs" textLength="56" x="357" y="151.6338">基本原理</text><path d="m473 174.5869h-10c-15 0-15-28.2441-30-28.2441h-10" fill="none" stroke="#000"/><rect fill="#fff" filter="url(#a)" height="36.4883" rx="5" stroke="#000" stroke-width="1.5" width="76" x="347" y="184.5869"/><text fill="#555" font-family="sans-serif" font-size="14" lengthAdjust="spacingAndGlyphs" textLength="56" x="357" y="208.1221">均匀量化</text><path d="m473 174.5869h-10c-15 0-15 28.2442-30 28.2442h-10" fill="none" stroke="#000"/><path d="m599 202.8311h-10c-15 0-15-28.2442-30-28.2442h-10" fill="none" stroke="#000"/><rect fill="#fff" filter="url(#a)" height="36.4883" rx="5" stroke="#000" stroke-width="1.5" width="161" x="388" y="241.0752"/><text fill="#555" font-family="sans-serif" font-size="14" lengthAdjust="spacingAndGlyphs" textLength="141" x="398" y="264.6104">H.265/HEVC中的量化</text><rect fill="#fff" filter="url(#a)" height="36.4883" rx="5" stroke="#000" stroke-width="1.5" width="48" x="290" y="241.0752"/><text fill="#555" font-family="sans-serif" font-size="14" lengthAdjust="spacingAndGlyphs" textLength="28" x="300" y="264.6104">量化</text><path d="m388 259.3193h-10c-15 0-15 0-30 0h-10" fill="none" stroke="#000"/><path d="m599 202.8311h-10c-15 0-15 56.4882-30 56.4882h-10" fill="none" stroke="#000"/><path d="m697 1106.6436h-10c-15 0-15-903.8125-30-903.8125h-10" fill="none" stroke="#000"/><rect fill="#fff" filter="url(#a)" height="36.4883" rx="5" stroke="#000" stroke-width="1.5" width="90" x="557" y="354.0518"/><text fill="#555" font-family="sans-serif" font-size="14" lengthAdjust="spacingAndGlyphs" textLength="70" x="567" y="377.5869">环路后处理</text><rect fill="#fff" filter="url(#a)" height="36.4883" rx="5" stroke="#000" stroke-width="1.5" width="90" x="417" y="297.5635"/><text fill="#555" font-family="sans-serif" font-size="14" lengthAdjust="spacingAndGlyphs" textLength="70" x="427" y="321.0986">去方块滤波</text><rect fill="#fff" filter="url(#a)" height="36.4883" rx="5" stroke="#000" stroke-width="1.5" width="118" x="249" y="297.5635"/><text fill="#555" font-family="sans-serif" font-size="14" lengthAdjust="spacingAndGlyphs" textLength="98" x="259" y="321.0986">去方块滤波技术</text><path d="m417 315.8076h-10c-15 0-15 0-30 0h-10" fill="none" stroke="#000"/><path d="m557 372.2959h-10c-15 0-15-56.4883-30-56.4883h-10" fill="none" stroke="#000"/><rect fill="#fff" filter="url(#a)" height="36.4883" rx="5" stroke="#000" stroke-width="1.5" width="118" x="389" y="382.2959"/><text fill="#555" font-family="sans-serif" font-size="14" lengthAdjust="spacingAndGlyphs" textLength="98" x="399" y="405.8311">样点自适应补偿</text><rect fill="#fff" filter="url(#a)" height="36.4883" rx="5" stroke="#000" stroke-width="1.5" width="77" x="262" y="354.0518"/><text fill="#555" font-family="sans-serif" font-size="14" lengthAdjust="spacingAndGlyphs" textLength="57" x="272" y="377.5869">SAO技术</text><path d="m389 400.54h-10c-15 0-15-28.2441-30-28.2441h-10" fill="none" stroke="#000"/><rect fill="#fff" filter="url(#a)" height="36.4883" rx="5" stroke="#000" stroke-width="1.5" width="119" x="220" y="410.54"/><text fill="#555" font-family="sans-serif" font-size="14" lengthAdjust="spacingAndGlyphs" textLength="99" x="230" y="434.0752">SAO的实现方法</text><path d="m389 400.54h-10c-15 0-15 28.2442-30 28.2442h-10" fill="none" stroke="#000"/><path d="m557 372.2959h-10c-15 0-15 28.2441-30 28.2441h-10" fill="none" stroke="#000"/><path d="m697 1106.6436h-10c-15 0-15-734.3477-30-734.3477h-10" fill="none" stroke="#000"/><rect fill="#fff" filter="url(#a)" height="36.4883" rx="5" stroke="#000" stroke-width="1.5" width="62" x="585" y="636.4932"/><text fill="#555" font-family="sans-serif" font-size="14" lengthAdjust="spacingAndGlyphs" textLength="42" x="595" y="660.0283">熵编码</text><rect fill="#fff" filter="url(#a)" height="36.4883" rx="5" stroke="#000" stroke-width="1.5" width="118" x="417" y="467.0283"/><text fill="#555" font-family="sans-serif" font-size="14" lengthAdjust="spacingAndGlyphs" textLength="98" x="427" y="490.5635">熵编码基本原理</text><rect fill="#fff" filter="url(#a)" height="36.4883" rx="5" stroke="#000" stroke-width="1.5" width="34" x="333" y="467.0283"/><text fill="#555" font-family="sans-serif" font-size="14" lengthAdjust="spacingAndGlyphs" textLength="14" x="343" y="490.5635">熵</text><path d="m417 485.2725h-10c-15 0-15 0-30 0h-10" fill="none" stroke="#000"/><path d="m585 654.7373h-10c-15 0-15-169.4648-30-169.4648h-10" fill="none" stroke="#000"/><rect fill="#fff" filter="url(#a)" height="36.4883" rx="5" stroke="#000" stroke-width="1.5" width="202" x="333" y="523.5166"/><text fill="#555" font-family="sans-serif" font-size="14" lengthAdjust="spacingAndGlyphs" textLength="182" x="343" y="547.0518">零阶指数哥伦布编码及其应用</text><rect fill="#fff" filter="url(#a)" height="36.4883" rx="5" stroke="#000" stroke-width="1.5" width="146" x="137" y="523.5166"/><text fill="#555" font-family="sans-serif" font-size="14" lengthAdjust="spacingAndGlyphs" textLength="126" x="147" y="547.0518">零阶指数哥伦布编码</text><path d="m333 541.7607h-10c-15 0-15 0-30 0h-10" fill="none" stroke="#000"/><path d="m585 654.7373h-10c-15 0-15-112.9766-30-112.9766h-10" fill="none" stroke="#000"/><rect fill="#fff" filter="url(#a)" height="36.4883" rx="5" stroke="#000" stroke-width="1.5" width="68" x="467" y="608.249"/><text fill="#555" font-family="sans-serif" font-size="14" lengthAdjust="spacingAndGlyphs" textLength="48" x="477" y="631.7842">CABAC</text><rect fill="#fff" filter="url(#a)" height="36.4883" rx="5" stroke="#000" stroke-width="1.5" width="110" x="307" y="580.0049"/><text fill="#555" font-family="sans-serif" font-size="14" lengthAdjust="spacingAndGlyphs" textLength="90" x="317" y="603.54">CABAC的原理</text><path d="m467 626.4932h-10c-15 0-15-28.2442-30-28.2442h-10" fill="none" stroke="#000"/><rect fill="#fff" filter="url(#a)" height="36.4883" rx="5" stroke="#000" stroke-width="1.5" width="181" x="236" y="636.4932"/><text fill="#555" font-family="sans-serif" font-size="14" lengthAdjust="spacingAndGlyphs" textLength="161" x="246" y="660.0283">H.265/HEVC中的CABAC</text><path d="m467 626.4932h-10c-15 0-15 28.2441-30 28.2441h-10" fill="none" stroke="#000"/><path d="m585 654.7373h-10c-15 0-15-28.2441-30-28.2441h-10" fill="none" stroke="#000"/><rect fill="#fff" filter="url(#a)" height="36.4883" rx="5" stroke="#000" stroke-width="1.5" width="118" x="417" y="749.4697"/><text fill="#555" font-family="sans-serif" font-size="14" lengthAdjust="spacingAndGlyphs" textLength="98" x="427" y="773.0049">变换系数熵编码</text><rect fill="#fff" filter="url(#a)" height="36.4883" rx="5" stroke="#000" stroke-width="1.5" width="104" x="263" y="692.9814"/><text fill="#555" font-family="sans-serif" font-size="14" lengthAdjust="spacingAndGlyphs" textLength="84" x="273" y="716.5166">变换系数扫描</text><path d="m417 767.7139h-10c-15 0-15-56.4883-30-56.4883h-10" fill="none" stroke="#000"/><rect fill="#fff" filter="url(#a)" height="36.4883" rx="5" stroke="#000" stroke-width="1.5" width="160" x="207" y="749.4697"/><text fill="#555" font-family="sans-serif" font-size="14" lengthAdjust="spacingAndGlyphs" textLength="140" x="217" y="773.0049">非零系数位置信息编码</text><path d="m417 767.7139h-10c-15 0-15 0-30 0h-10" fill="none" stroke="#000"/><rect fill="#fff" filter="url(#a)" height="36.4883" rx="5" stroke="#000" stroke-width="1.5" width="160" x="207" y="805.958"/><text fill="#555" font-family="sans-serif" font-size="14" lengthAdjust="spacingAndGlyphs" textLength="140" x="217" y="829.4932">非零系数幅值信息编码</text><path d="m417 767.7139h-10c-15 0-15 56.4882-30 56.4882h-10" fill="none" stroke="#000"/><path d="m585 654.7373h-10c-15 0-15 112.9766-30 112.9766h-10" fill="none" stroke="#000"/><path d="m697 1106.6436h-10c-15 0-15-451.9063-30-451.9063h-10" fill="none" stroke="#000"/><rect fill="#fff" filter="url(#a)" height="36.4883" rx="5" stroke="#000" stroke-width="1.5" width="90" x="557" y="1031.9111"/><text fill="#555" font-family="sans-serif" font-size="14" lengthAdjust="spacingAndGlyphs" textLength="70" x="567" y="1055.4463">网络适配层</text><rect fill="#fff" filter="url(#a)" height="36.4883" rx="5" stroke="#000" stroke-width="1.5" width="76" x="431" y="862.4463"/><text fill="#555" font-family="sans-serif" font-size="14" lengthAdjust="spacingAndGlyphs" textLength="56" x="441" y="885.9814">分层结构</text><path d="m557 1050.1553h-10c-15 0-15-169.4649-30-169.4649h-10" fill="none" stroke="#000"/><rect fill="#fff" filter="url(#a)" height="36.4883" rx="5" stroke="#000" stroke-width="1.5" width="76" x="431" y="918.9346"/><text fill="#555" font-family="sans-serif" font-size="14" lengthAdjust="spacingAndGlyphs" textLength="56" x="441" y="942.4697">图像类型</text><path d="m557 1050.1553h-10c-15 0-15-112.9766-30-112.9766h-10" fill="none" stroke="#000"/><rect fill="#fff" filter="url(#a)" height="36.4883" rx="5" stroke="#000" stroke-width="1.5" width="118" x="389" y="975.4229"/><text fill="#555" font-family="sans-serif" font-size="14" lengthAdjust="spacingAndGlyphs" textLength="98" x="399" y="998.958">网络适配层单元</text><rect fill="#fff" filter="url(#a)" height="36.4883" rx="5" stroke="#000" stroke-width="1.5" width="85" x="254" y="975.4229"/><text fill="#555" font-family="sans-serif" font-size="14" lengthAdjust="spacingAndGlyphs" textLength="65" x="264" y="998.958">NALU载荷</text><path d="m389 993.667h-10c-15 0-15 0-30 0h-10" fill="none" stroke="#000"/><path d="m557 1050.1553h-10c-15 0-15-56.4883-30-56.4883h-10" fill="none" stroke="#000"/><rect fill="#fff" filter="url(#a)" height="36.4883" rx="5" stroke="#000" stroke-width="1.5" width="155" x="352" y="1060.1553"/><text fill="#555" font-family="sans-serif" font-size="14" lengthAdjust="spacingAndGlyphs" textLength="135" x="362" y="1083.6904">视频比特流中的NALU</text><rect fill="#fff" filter="url(#a)" height="36.4883" rx="5" stroke="#000" stroke-width="1.5" width="76" x="226" y="1031.9111"/><text fill="#555" font-family="sans-serif" font-size="14" lengthAdjust="spacingAndGlyphs" textLength="56" x="236" y="1055.4463">介入单元</text><path d="m352 1078.3994h-10c-15 0-15-28.2441-30-28.2441h-10" fill="none" stroke="#000"/><rect fill="#fff" filter="url(#a)" height="36.4883" rx="5" stroke="#000" stroke-width="1.5" width="62" x="240" y="1088.3994"/><text fill="#555" font-family="sans-serif" font-size="14" lengthAdjust="spacingAndGlyphs" textLength="42" x="250" y="1111.9346">参数集</text><path d="m352 1078.3994h-10c-15 0-15 28.2442-30 28.2442h-10" fill="none" stroke="#000"/><path d="m557 1050.1553h-10c-15 0-15 28.2441-30 28.2441h-10" fill="none" stroke="#000"/><rect fill="#fff" filter="url(#a)" height="36.4883" rx="5" stroke="#000" stroke-width="1.5" width="160" x="347" y="1173.1318"/><text fill="#555" font-family="sans-serif" font-size="14" lengthAdjust="spacingAndGlyphs" textLength="140" x="357" y="1196.667">网络适配层单元的应用</text><rect fill="#fff" filter="url(#a)" height="36.4883" rx="5" stroke="#000" stroke-width="1.5" width="90" x="207" y="1144.8877"/><text fill="#555" font-family="sans-serif" font-size="14" lengthAdjust="spacingAndGlyphs" textLength="70" x="217" y="1168.4229">字节流应用</text><path d="m347 1191.376h-10c-15 0-15-28.2442-30-28.2442h-10" fill="none" stroke="#000"/><rect fill="#fff" filter="url(#a)" height="36.4883" rx="5" stroke="#000" stroke-width="1.5" width="90" x="207" y="1201.376"/><text fill="#555" font-family="sans-serif" font-size="14" lengthAdjust="spacingAndGlyphs" textLength="70" x="217" y="1224.9111">分组流应用</text><path d="m347 1191.376h-10c-15 0-15 28.2441-30 28.2441h-10" fill="none" stroke="#000"/><path d="m557 1050.1553h-10c-15 0-15 141.2207-30 141.2207h-10" fill="none" stroke="#000"/><path d="m697 1106.6436h-10c-15 0-15-56.4883-30-56.4883h-10" fill="none" stroke="#000"/><rect fill="#fff" filter="url(#a)" height="36.4883" rx="5" stroke="#000" stroke-width="1.5" width="118" x="529" y="1540.3057"/><text fill="#555" font-family="sans-serif" font-size="14" lengthAdjust="spacingAndGlyphs" textLength="98" x="539" y="1563.8408">编解码并行处理</text><rect fill="#fff" filter="url(#a)" height="36.4883" rx="5" stroke="#000" stroke-width="1.5" width="174" x="305" y="1314.3525"/><text fill="#555" font-family="sans-serif" font-size="14" lengthAdjust="spacingAndGlyphs" textLength="154" x="315" y="1337.8877">视频编解码并行处理技术</text><rect fill="#fff" filter="url(#a)" height="36.4883" rx="5" stroke="#000" stroke-width="1.5" width="132" x="123" y="1257.8643"/><text fill="#555" font-family="sans-serif" font-size="14" lengthAdjust="spacingAndGlyphs" textLength="112" x="133" y="1281.3994">并行处理基本概念</text><path d="m305 1332.5967h-10c-15 0-15-56.4883-30-56.4883h-10" fill="none" stroke="#000"/><rect fill="#fff" filter="url(#a)" height="36.4883" rx="5" stroke="#000" stroke-width="1.5" width="231" x="24" y="1314.3525"/><text fill="#555" font-family="sans-serif" font-size="14" lengthAdjust="spacingAndGlyphs" textLength="211" x="34" y="1337.8877">H.265/HEVC编解码并行处理方式</text><path d="m305 1332.5967h-10c-15 0-15 0-30 0h-10" fill="none" stroke="#000"/><rect fill="#fff" filter="url(#a)" height="36.4883" rx="5" stroke="#000" stroke-width="1.5" width="245" x="10" y="1370.8408"/><text fill="#555" font-family="sans-serif" font-size="14" lengthAdjust="spacingAndGlyphs" textLength="225" x="20" y="1394.376">H.265/HEVC编码单元数据依赖关系</text><path d="m305 1332.5967h-10c-15 0-15 56.4883-30 56.4883h-10" fill="none" stroke="#000"/><path d="m529 1558.5498h-10c-15 0-15-225.9531-30-225.9531h-10" fill="none" stroke="#000"/><rect fill="#fff" filter="url(#a)" height="36.4883" rx="5" stroke="#000" stroke-width="1.5" width="245" x="234" y="1483.8174"/><text fill="#555" font-family="sans-serif" font-size="14" lengthAdjust="spacingAndGlyphs" textLength="225" x="244" y="1507.3525">H.265/HEVC标准中并行处理新技术</text><rect fill="#fff" filter="url(#a)" height="36.4883" rx="5" stroke="#000" stroke-width="1.5" width="45" x="139" y="1427.3291"/><text fill="#555" font-family="sans-serif" font-size="14" lengthAdjust="spacingAndGlyphs" textLength="25" x="149" y="1450.8643">Tile</text><path d="m234 1502.0615h-10c-15 0-15-56.4883-30-56.4883h-10" fill="none" stroke="#000"/><rect fill="#fff" filter="url(#a)" height="36.4883" rx="5" stroke="#000" stroke-width="1.5" width="104" x="80" y="1483.8174"/><text fill="#555" font-family="sans-serif" font-size="14" lengthAdjust="spacingAndGlyphs" textLength="84" x="90" y="1507.3525">波前并行处理</text><path d="m234 1502.0615h-10c-15 0-15 0-30 0h-10" fill="none" stroke="#000"/><rect fill="#fff" filter="url(#a)" height="36.4883" rx="5" stroke="#000" stroke-width="1.5" width="62" x="122" y="1540.3057"/><text fill="#555" font-family="sans-serif" font-size="14" lengthAdjust="spacingAndGlyphs" textLength="42" x="132" y="1563.8408">依赖片</text><path d="m234 1502.0615h-10c-15 0-15 56.4883-30 56.4883h-10" fill="none" stroke="#000"/><path d="m529 1558.5498h-10c-15 0-15-56.4883-30-56.4883h-10" fill="none" stroke="#000"/><rect fill="#fff" filter="url(#a)" height="36.4883" rx="5" stroke="#000" stroke-width="1.5" width="203" x="276" y="1709.7705"/><text fill="#555" font-family="sans-serif" font-size="14" lengthAdjust="spacingAndGlyphs" textLength="183" x="286" y="1733.3057">H.265/HEVC编解码并行策略</text><rect fill="#fff" filter="url(#a)" height="36.4883" rx="5" stroke="#000" stroke-width="1.5" width="91" x="135" y="1596.7939"/><text fill="#555" font-family="sans-serif" font-size="14" lengthAdjust="spacingAndGlyphs" textLength="71" x="145" y="1620.3291">GOP级并行</text><path d="m276 1728.0146h-10c-15 0-15-112.9765-30-112.9765h-10" fill="none" stroke="#000"/><rect fill="#fff" filter="url(#a)" height="36.4883" rx="5" stroke="#000" stroke-width="1.5" width="90" x="136" y="1653.2822"/><text fill="#555" font-family="sans-serif" font-size="14" lengthAdjust="spacingAndGlyphs" textLength="70" x="146" y="1676.8174">图像级并行</text><path d="m276 1728.0146h-10c-15 0-15-56.4882-30-56.4882h-10" fill="none" stroke="#000"/><rect fill="#fff" filter="url(#a)" height="36.4883" rx="5" stroke="#000" stroke-width="1.5" width="93" x="133" y="1709.7705"/><text fill="#555" font-family="sans-serif" font-size="14" lengthAdjust="spacingAndGlyphs" textLength="73" x="143" y="1733.3057">Slice级并行</text><path d="m276 1728.0146h-10c-15 0-15 0-30 0h-10" fill="none" stroke="#000"/><rect fill="#fff" filter="url(#a)" height="36.4883" rx="5" stroke="#000" stroke-width="1.5" width="87" x="139" y="1766.2588"/><text fill="#555" font-family="sans-serif" font-size="14" lengthAdjust="spacingAndGlyphs" textLength="67" x="149" y="1789.7939">Tile级并行</text><path d="m276 1728.0146h-10c-15 0-15 56.4883-30 56.4883h-10" fill="none" stroke="#000"/><rect fill="#fff" filter="url(#a)" height="36.4883" rx="5" stroke="#000" stroke-width="1.5" width="89" x="137" y="1822.7471"/><text fill="#555" font-family="sans-serif" font-size="14" lengthAdjust="spacingAndGlyphs" textLength="69" x="147" y="1846.2822">CTB级并行</text><path d="m276 1728.0146h-10c-15 0-15 112.9766-30 112.9766h-10" fill="none" stroke="#000"/><path d="m529 1558.5498h-10c-15 0-15 169.4648-30 169.4648h-10" fill="none" stroke="#000"/><path d="m697 1106.6436h-10c-15 0-15 451.9062-30 451.9062h-10" fill="none" stroke="#000"/><rect fill="#fff" filter="url(#a)" height="36.4883" rx="5" stroke="#000" stroke-width="1.5" width="90" x="557" y="1907.4795"/><text fill="#555" font-family="sans-serif" font-size="14" lengthAdjust="spacingAndGlyphs" textLength="70" x="567" y="1931.0146">率失真优化</text><rect fill="#fff" filter="url(#a)" height="36.4883" rx="5" stroke="#000" stroke-width="1.5" width="118" x="389" y="1879.2354"/><text fill="#555" font-family="sans-serif" font-size="14" lengthAdjust="spacingAndGlyphs" textLength="98" x="399" y="1902.7705">率失真优化技术</text><rect fill="#fff" filter="url(#a)" height="36.4883" rx="5" stroke="#000" stroke-width="1.5" width="90" x="249" y="1879.2354"/><text fill="#555" font-family="sans-serif" font-size="14" lengthAdjust="spacingAndGlyphs" textLength="70" x="259" y="1902.7705">率失真理论</text><path d="m389 1897.4795h-10c-15 0-15 0-30 0h-10" fill="none" stroke="#000"/><path d="m557 1925.7236h-10c-15 0-15-28.2441-30-28.2441h-10" fill="none" stroke="#000"/><rect fill="#fff" filter="url(#a)" height="36.4883" rx="5" stroke="#000" stroke-width="1.5" width="273" x="234" y="1935.7236"/><text fill="#555" font-family="sans-serif" font-size="14" lengthAdjust="spacingAndGlyphs" textLength="253" x="244" y="1959.2588">H.265/HEVC编码器中的率失真优化方法</text><rect fill="#fff" filter="url(#a)" height="36.4883" rx="5" stroke="#000" stroke-width="1.5" width="174" x="10" y="1935.7236"/><text fill="#555" font-family="sans-serif" font-size="14" lengthAdjust="spacingAndGlyphs" textLength="154" x="20" y="1959.2588">视频图像组的率失真优化</text><path d="m234 1953.9678h-10c-15 0-15 0-30 0h-10" fill="none" stroke="#000"/><path d="m557 1925.7236h-10c-15 0-15 28.2442-30 28.2442h-10" fill="none" stroke="#000"/><path d="m697 1106.6436h-10c-15 0-15 819.08-30 819.08h-10" fill="none" stroke="#000"/><rect fill="#fff" filter="url(#a)" height="36.4883" rx="5" stroke="#000" stroke-width="1.5" width="76" x="571" y="2020.4561"/><text fill="#555" font-family="sans-serif" font-size="14" lengthAdjust="spacingAndGlyphs" textLength="56" x="581" y="2043.9912">速率控制</text><rect fill="#fff" filter="url(#a)" height="36.4883" rx="5" stroke="#000" stroke-width="1.5" width="132" x="389" y="1992.2119"/><text fill="#555" font-family="sans-serif" font-size="14" lengthAdjust="spacingAndGlyphs" textLength="112" x="399" y="2015.7471">视频编码速率控制</text><rect fill="#fff" filter="url(#a)" height="36.4883" rx="5" stroke="#000" stroke-width="1.5" width="146" x="193" y="1992.2119"/><text fill="#555" font-family="sans-serif" font-size="14" lengthAdjust="spacingAndGlyphs" textLength="126" x="203" y="2015.7471">速率控制的基本原理</text><path d="m389 2010.4561h-10c-15 0-15 0-30 0h-10" fill="none" stroke="#000"/><path d="m571 2038.7002h-10c-15 0-15-28.2441-30-28.2441h-10" fill="none" stroke="#000"/><rect fill="#fff" filter="url(#a)" height="36.4883" rx="5" stroke="#000" stroke-width="1.5" width="161" x="360" y="2048.7002"/><text fill="#555" font-family="sans-serif" font-size="14" lengthAdjust="spacingAndGlyphs" textLength="141" x="370" y="2072.2354">H.265/HEVC速率控制</text><rect fill="#fff" filter="url(#a)" height="36.4883" rx="5" stroke="#000" stroke-width="1.5" width="104" x="206" y="2048.7002"/><text fill="#555" font-family="sans-serif" font-size="14" lengthAdjust="spacingAndGlyphs" textLength="84" x="216" y="2072.2354">目标比特分配</text><path d="m360 2066.9443h-10c-15 0-15 0-30 0h-10" fill="none" stroke="#000"/><path d="m571 2038.7002h-10c-15 0-15 28.2441-30 28.2441h-10" fill="none" stroke="#000"/><path d="m697 1106.6436h-10c-15 0-15 932.0566-30 932.0566h-10" fill="none" stroke="#000"/></svg>